<svg xmlns="http://www.w3.org/2000/svg" xmlns:xlink="http://www.w3.org/1999/xlink" width="16" height="16" viewBox="0 0 16 16">
    <defs>
        <path id="a" d="M11.5 1.063c.841 0 1.522.682 1.522 1.522a.522.522 0 0 1-1.043 0 .478.478 0 0 0-.478-.478h-9a.478.478 0 0 0-.479.478v9c0 .264.215.478.479.478h9a.478.478 0 0 0 .478-.478v-3a.522.522 0 0 1 1.043 0v3c0 .84-.68 1.522-1.521 1.522h-9c-.84 0-1.522-.682-1.522-1.522v-9c0-.84.681-1.522 1.522-1.522h9zm3.37 2.153l2 2 .016.017.029.035-.045-.052a.524.524 0 0 1 .152.369v.023a.525.525 0 0 1-.004.043l.004-.066a.523.523 0 0 1-.152.369l-2 2a.522.522 0 1 1-.738-.738l1.108-1.11H9a1.978 1.978 0 0 0-1.978 1.979.522.522 0 1 1-1.044 0A3.022 3.022 0 0 1 9 5.063h6.24l-1.108-1.11a.522.522 0 0 1 .738-.737z"/>
    </defs>
    <g fill="none" fill-rule="evenodd" transform="translate(-1 1)">
        <mask id="b" fill="#fff">
            <use xlink:href="#a"/>
        </mask>
        <use fill="#3A393A" fill-rule="nonzero" xlink:href="#a"/>
        <g fill="#404141" mask="url(#b)">
            <path d="M.652-1.348h16.696v16.696H.652z"/>
        </g>
    </g>
</svg>
