<svg xmlns="http://www.w3.org/2000/svg" xmlns:xlink="http://www.w3.org/1999/xlink" width="16" height="16" viewBox="0 0 16 16">
    <defs>
        <path id="a" d="M4 5.671V5c0-.513.097-1.004.273-1.455A3.5 3.5 0 0 1 2.5.5a.5.5 0 0 1 1 0 2.5 2.5 0 0 0 1.251 2.166A3.995 3.995 0 0 1 8 1c1.338 0 2.523.657 3.249 1.666A2.5 2.5 0 0 0 12.5.5a.5.5 0 1 1 1 0 3.5 3.5 0 0 1-1.773 3.045c.176.45.273.942.273 1.455v.671A4.491 4.491 0 0 1 15.5 4a.5.5 0 1 1 0 1 3.5 3.5 0 0 0-3.465 3H15.5a.5.5 0 1 1 0 1h-3.465a3.5 3.5 0 0 0 3.465 3 .5.5 0 1 1 0 1 4.491 4.491 0 0 1-3.5-1.671V12a4 4 0 0 1-8 0v-.671A4.491 4.491 0 0 1 .5 13a.5.5 0 1 1 0-1 3.5 3.5 0 0 0 3.465-3H.5a.5.5 0 0 1 0-1h3.465A3.5 3.5 0 0 0 .5 5a.5.5 0 0 1 0-1c1.414 0 2.675.652 3.5 1.671zm1.364-2.103A2.986 2.986 0 0 0 5 5h6a2.986 2.986 0 0 0-.385-1.47 3 3 0 0 0-5.251.038zM5 6v6a3 3 0 0 0 6 0V6H5z"/>
    </defs>
    <g fill="none" fill-rule="evenodd">
        <mask id="b" fill="#fff">
            <use xlink:href="#a"/>
        </mask>
        <use fill="#404141" fill-rule="nonzero" xlink:href="#a"/>
        <g fill="#3A393A" mask="url(#b)">
            <path d="M0 0h16v16H0z"/>
        </g>
    </g>
</svg>
