<svg xmlns="http://www.w3.org/2000/svg" xmlns:xlink="http://www.w3.org/1999/xlink" width="16" height="16" viewBox="0 0 16 16">
    <defs>
        <path id="a" d="M10.194 3l-.106.315A1 1 0 0 1 9.14 4H4.861a1 1 0 0 1-.95-.684L3.807 3H1.5a.5.5 0 0 0-.5.5v11a.5.5 0 0 0 .5.5h4a.5.5 0 0 1 0 1h-4A1.5 1.5 0 0 1 0 14.5v-11A1.5 1.5 0 0 1 1.5 2h1.973l-.228-.683a1 1 0 0 1 .949-1.317h5.61a1 1 0 0 1 .951 1.316L10.527 2H12.5A1.5 1.5 0 0 1 14 3.5v2a.5.5 0 1 1-1 0v-2a.5.5 0 0 0-.5-.5h-2.306zm-5.555-.665a.496.496 0 0 1 .004.013l.217.651h4.28l.666-2H4.194l.445 1.336zM8.5 6.999h6A1.5 1.5 0 0 1 16 8.5v6a1.5 1.5 0 0 1-1.5 1.5h-6A1.5 1.5 0 0 1 7 14.5v-6A1.5 1.5 0 0 1 8.5 7zm0 1a.5.5 0 0 0-.5.5v6a.5.5 0 0 0 .5.5h6a.5.5 0 0 0 .5-.5v-6a.5.5 0 0 0-.5-.5h-6zm1 2a.5.5 0 1 1 0-1h4a.5.5 0 1 1 0 1h-4zm0 2a.5.5 0 1 1 0-1h4a.5.5 0 0 1 0 1h-4zm0 2a.5.5 0 1 1 0-1H11a.5.5 0 0 1 0 1H9.5z"/>
    </defs>
    <g fill="none" fill-rule="evenodd">
        <mask id="b" fill="#fff">
            <use xlink:href="#a"/>
        </mask>
        <use fill="#000" fill-rule="nonzero" xlink:href="#a"/>
        <g fill="#3A393A" mask="url(#b)">
            <path d="M0 0h16v16H0z"/>
        </g>
    </g>
</svg>
