<svg xmlns="http://www.w3.org/2000/svg" xmlns:xlink="http://www.w3.org/1999/xlink" width="24" height="24" viewBox="0 0 24 24">
    <defs>
        <path id="a" d="M12 0c6.627 0 12 5.373 12 12s-5.373 12-12 12S0 18.627 0 12 5.373 0 12 0zm0 1C5.925 1 1 5.925 1 12s4.925 11 11 11 11-4.925 11-11S18.075 1 12 1zm1.56 5.994a.5.5 0 0 1 .425.565l-.99 6.998a2.667 2.667 0 1 1-.98-.21l.98-6.928a.5.5 0 0 1 .565-.425zm-2.487 8.61a1.667 1.667 0 1 0 1.766 2.826 1.667 1.667 0 0 0-1.766-2.827zM21.5 12a.5.5 0 1 1 0 1h-2a.5.5 0 1 1 0-1h2zm-17 0a.5.5 0 1 1 0 1h-2a.5.5 0 1 1 0-1h2zm15.033-6.082a.5.5 0 0 1-.05.705l-1.51 1.312a.5.5 0 0 1-.655-.754l1.51-1.313a.5.5 0 0 1 .705.05zm-14.68-.252l1.552 1.26a.5.5 0 0 1-.63.776l-1.552-1.26a.5.5 0 1 1 .63-.776zM12 2a.5.5 0 0 1 .5.5v2a.5.5 0 1 1-1 0v-2A.5.5 0 0 1 12 2z"/>
    </defs>
    <g fill="none" fill-rule="evenodd">
        <mask id="b" fill="#fff">
            <use xlink:href="#a"/>
        </mask>
        <use fill="#7E8892" fill-rule="nonzero" xlink:href="#a"/>
        <g fill="#00A1E0" mask="url(#b)">
            <path d="M0 0h24v24H0z"/>
        </g>
    </g>
</svg>
