<svg xmlns="http://www.w3.org/2000/svg" xmlns:xlink="http://www.w3.org/1999/xlink" width="16" height="16" viewBox="0 0 16 16">
    <defs>
        <path id="a" d="M14.507 4.002h-13v5.5a.5.5 0 0 0 .5.5h1a.5.5 0 1 1 0 1h-1a1.5 1.5 0 0 1-1.5-1.5v-8a1.5 1.5 0 0 1 1.5-1.5h12a1.5 1.5 0 0 1 1.5 1.5v8a1.5 1.5 0 0 1-1.5 1.5h-1a.5.5 0 1 1 0-1h1a.5.5 0 0 0 .5-.5v-5.5zm0-1v-1.5a.5.5 0 0 0-.5-.5h-12a.5.5 0 0 0-.5.5v1.5h13zm-6 11.293l2.146-2.147a.5.5 0 0 1 .707.708l-3 3a.5.5 0 0 1-.707 0l-3-3a.5.5 0 0 1 .707-.708l2.147 2.147V6.502a.5.5 0 1 1 1 0v7.793z"/>
    </defs>
    <g fill="none" fill-rule="evenodd">
        <mask id="b" fill="#fff">
            <use xlink:href="#a"/>
        </mask>
        <use fill="#404141" fill-rule="nonzero" xlink:href="#a"/>
        <g fill="#3A393A" mask="url(#b)">
            <path d="M0 0h16v16H0z"/>
        </g>
    </g>
</svg>
