<svg xmlns="http://www.w3.org/2000/svg" xmlns:xlink="http://www.w3.org/1999/xlink" width="16" height="16" viewBox="0 0 16 16">
    <defs>
        <path id="prefix__a" d="M8 .2c4.197 0 7.6 3.403 7.6 7.6 0 4.197-3.403 7.6-7.6 7.6-4.197 0-7.6-3.403-7.6-7.6C.4 3.603 3.803.2 8 .2zm0 1.126c-3.576 0-6.474 2.898-6.474 6.474S4.424 14.274 8 14.274s6.474-2.898 6.474-6.474S11.576 1.326 8 1.326zm.006 2.158c.396 0 .759.22.942.571l.012.024.813 1.753h1.495c.431-.017.827.239.989.639.161.4.054.859-.248 1.127l-1.35 1.331.751 1.728c.174.417.062.899-.278 1.197-.34.298-.832.346-1.217.123l-1.906-1.071-1.902 1.068c-.391.226-.883.178-1.223-.12-.34-.298-.451-.78-.274-1.206l.748-1.718L4.03 7.621c-.325-.285-.436-.744-.275-1.146.16-.402.555-.66.966-.643H6.24l.824-1.777c.184-.35.547-.57.943-.57zm0 1.214L7.11 6.63c-.093.2-.292.326-.511.326h-1.64L6.424 8.4c.165.163.214.412.12.626l-.814 1.869 2.004-1.126c.171-.096.38-.096.551 0l2.001 1.126-.814-1.87c-.093-.214-.045-.463.12-.626l1.464-1.442H9.414c-.22 0-.419-.127-.511-.326l-.897-1.933z"/>
    </defs>
    <g fill="none" fill-rule="evenodd" transform="translate(0 .2)">
        <mask id="prefix__b" fill="#fff">
            <use xlink:href="#prefix__a"/>
        </mask>
        <use fill="#000" fill-rule="nonzero" xlink:href="#prefix__a"/>
        <g fill="#c7ced9" mask="url(#prefix__b)">
            <path d="M0 0H16V16H0z" transform="translate(0 -.2)"/>
        </g>
    </g>
</svg>
