<svg xmlns="http://www.w3.org/2000/svg" xmlns:xlink="http://www.w3.org/1999/xlink" width="16" height="16" viewBox="0 0 16 16">
    <defs>
        <path id="prefix__a" d="M8 0c4.418 0 8 3.582 8 8s-3.582 8-8 8-8-3.582-8-8 3.582-8 8-8zm.006 3.5c-.385 0-.738.214-.916.555l-.903 1.947h-1.68c-.4-.015-.783.234-.938.623-.155.389-.048.833.266 1.11l1.468 1.447-.825 1.893c-.171.413-.063.88.267 1.17.33.29.808.337 1.188.117l2.077-1.166 2.08 1.17c.375.216.852.169 1.182-.12.33-.29.439-.758.27-1.163l-.828-1.902 1.489-1.468c.294-.26.397-.705.24-1.092-.156-.387-.538-.635-.956-.619H9.826l-.894-1.926-.01-.02c-.178-.342-.531-.556-.916-.556z"/>
    </defs>
    <g fill="none" fill-rule="evenodd">
        <mask id="prefix__b" fill="#fff">
            <use xlink:href="#prefix__a"/>
        </mask>
        <use fill="#000" fill-rule="nonzero" xlink:href="#prefix__a"/>
        <g fill="#FDB913" mask="url(#prefix__b)">
            <path d="M0 0H16V16H0z"/>
        </g>
    </g>
</svg>
