<svg xmlns="http://www.w3.org/2000/svg" width="17" height="16" viewBox="0 0 17 16">
    <g fill="none" fill-rule="evenodd" stroke="#1F1F1F" stroke-linecap="round" stroke-linejoin="round">
        <path d="M14.5 6.467c.255-.241.494-.485.715-.729.38-.421.38-1.063 0-1.484C13.467 2.334 10.687.456 8 .501 5.313.456 2.533 2.333.786 4.257a1.108 1.108 0 0 0 0 1.484 12.565 12.565 0 0 0 4.721 3.303M6.497 7A2.5 2.5 0 1 1 10.5 5"/>
        <path d="M10.5 7a3.5 3.5 0 1 1 0 7 3.5 3.5 0 0 1 0-7zM15.5 15.5l-2.51-2.51"/>
    </g>
</svg>
