 <svg xmlns="http://www.w3.org/2000/svg" xmlns:xlink="http://www.w3.org/1999/xlink" width="14" height="14" viewBox="0 0 23 23">
                    <defs>
                        <path id="a"
                            d="M16.212 8.788l-8.005 8.005a.705.705 0 0 1-.225.151l.685 1.598 8.651-8.649-1.106-1.105zm-1-1L14.11 6.686l-8.653 8.651 1.598.682a.705.705 0 0 1 .152-.226l8.005-8.005zm1.42-.702a.707.707 0 0 1 .282.282l1.465 1.465.68-.68-3.208-3.207-.68.68 1.46 1.46zm-9.25 12.267l-.82-1.913-1.915-.817-.971 3.701 3.706-.97zM3.623 15.05l9.944-9.94a.764.764 0 0 1 .026-.026l2.067-2.067a3.776 3.776 0 0 1 5.362-.036 3.775 3.775 0 0 1-.028 5.359L8.94 20.389a.75.75 0 0 1-.34.196L2.815 22.1a.75.75 0 0 1-.915-.916l1.513-5.77a.755.755 0 0 1 .21-.366zm16.489-7.965a2.273 2.273 0 0 0-.149-3.042 2.276 2.276 0 0 0-3.043-.148l3.192 3.19z" />
                    </defs>
                    <g fill="none" fill-rule="evenodd">
                        <mask id="b" fill="#fff">
                            <use xlink:href="#a" />
                        </mask>
                        <use fill="#2E2E2E" fill-rule="nonzero" xlink:href="#a" />
                        <g fill="#404141" mask="url(#b)">
                            <path d="M0 0h23v23H0z" />
                        </g>
                    </g>
                </svg>