<svg xmlns="http://www.w3.org/2000/svg" xmlns:xlink="http://www.w3.org/1999/xlink" width="24" height="24" viewBox="0 0 24 24">
    <defs>
        <path id="a" d="M5 2a1 1 0 0 1-1 1H2a1 1 0 0 0-1 1v18a1 1 0 0 0 1 1h14a1 1 0 0 0 1-1V4a1 1 0 0 0-1-1h-2a1 1 0 0 1-1-1h3a2 2 0 0 1 2 2v18a2 2 0 0 1-2 2H2a2 2 0 0 1-2-2V4a2 2 0 0 1 2-2h3zm0 0a1 1 0 0 1-1 1H2a1 1 0 0 0-1 1v18a1 1 0 0 0 1 1h14a1 1 0 0 0 1-1V4a1 1 0 0 0-1-1h-2a1 1 0 0 1-1-1h3a2 2 0 0 1 2 2v18a2 2 0 0 1-2 2H2a2 2 0 0 1-2-2V4a2 2 0 0 1 2-2zm8.5 8a.5.5 0 0 1 .5.5V19h1a.5.5 0 1 1 0 1H3a.5.5 0 1 1 0-1h1v-4.5a.5.5 0 0 1 .5-.5h3a.5.5 0 0 1 .5.5V16h2v-5.5a.5.5 0 0 1 .5-.5h3zM7 15H5v4h2v-4zm6-4h-2v8h2v-8zm-3 6H8v2h2v-2zM9 0c.717 0 1.752.172 3.121.515a.5.5 0 0 1 .372.57L11.906 4.5H15.5a.5.5 0 1 1 0 1h-3.765l-.1.584a.5.5 0 0 1-.492.416H6.857a.5.5 0 0 1-.493-.416l-.1-.585L2.5 5.5a.5.5 0 0 1 0-1l3.592-.001-.585-3.415a.5.5 0 0 1 .372-.57C7.249.173 8.283 0 9 0zm0 1c-.543 0-1.356.125-2.428.376L7.279 5.5h3.442l.707-4.124C10.356 1.125 9.543 1 9 1zm0 1.75a.75.75 0 1 1 0 1.5.75.75 0 0 1 0-1.5z"/>
    </defs>
    <g fill="none" fill-rule="evenodd" transform="translate(3)">
        <mask id="b" fill="#fff">
            <use xlink:href="#a"/>
        </mask>
        <use fill="#7E8892" fill-rule="nonzero" xlink:href="#a"/>
        <g fill="#FFF" mask="url(#b)">
            <path d="M-3 0h24v24H-3z"/>
        </g>
    </g>
</svg>
