<svg xmlns="http://www.w3.org/2000/svg" xmlns:xlink="http://www.w3.org/1999/xlink" width="16" height="16" viewBox="0 0 16 16">
    <defs>
        <path id="a" d="M10.222 4.033a4.376 4.376 0 1 0-6.19 6.19 4.376 4.376 0 1 0 6.19-6.19m4.552 10.741a.877.877 0 0 1-1.239 0l-2.756-2.757c-2.4 1.794-5.804 1.624-7.984-.557a6.126 6.126 0 0 1 0-8.665 6.126 6.126 0 0 1 8.665 0c2.181 2.18 2.351 5.584.557 7.984l2.757 2.757a.876.876 0 0 1 0 1.238"/>
    </defs>
    <g fill="none" fill-rule="evenodd">
        <mask id="b" fill="#fff">
            <use xlink:href="#a"/>
        </mask>
        <g fill="#404141" mask="url(#b)">
            <path d="M0 0h16v16H0z"/>
        </g>
    </g>
</svg>
