<svg xmlns="http://www.w3.org/2000/svg" xmlns:xlink="http://www.w3.org/1999/xlink" width="24" height="24" viewBox="0 0 24 24">
    <defs>
        <path id="a" d="M7 14.5a3.5 3.5 0 0 1 3.464 3H23a.5.5 0 1 1 0 1H10.465a3.5 3.5 0 0 1-6.93 0H1a.5.5 0 1 1 0-1h2.536A3.5 3.5 0 0 1 7 14.5zm0 1a2.5 2.5 0 1 0 0 5 2.5 2.5 0 0 0 0-5zm10-8a3.5 3.5 0 0 1 3.464 3H23a.5.5 0 1 1 0 1h-2.535a3.5 3.5 0 0 1-6.93 0H1a.5.5 0 1 1 0-1h12.536A3.5 3.5 0 0 1 17 7.5zm0 1a2.5 2.5 0 1 0 0 5 2.5 2.5 0 0 0 0-5zM7 .5a3.5 3.5 0 0 1 3.464 3H23a.5.5 0 1 1 0 1H10.465a3.5 3.5 0 0 1-6.93 0H1a.5.5 0 0 1 0-1h2.536A3.5 3.5 0 0 1 7 .5zm0 1a2.5 2.5 0 1 0 0 5 2.5 2.5 0 0 0 0-5z"/>
    </defs>
    <g fill="none" fill-rule="evenodd" transform="translate(0 1)">
        <mask id="b" fill="#fff">
            <use xlink:href="#a"/>
        </mask>
        <use fill="#FFF" fill-rule="nonzero" xlink:href="#a"/>
        <g fill="#FFF" mask="url(#b)">
            <path d="M0-1h24v24H0z"/>
        </g>
    </g>
</svg>
