<svg xmlns="http://www.w3.org/2000/svg" xmlns:xlink="http://www.w3.org/1999/xlink" width="16" height="16" viewBox="0 0 16 16">
    <defs>
        <path id="a" d="M1.5 8.5H6A1.5 1.5 0 0 1 7.5 10v4.5A1.5 1.5 0 0 1 6 16H1.5A1.5 1.5 0 0 1 0 14.5V10a1.5 1.5 0 0 1 1.5-1.5zm0 1a.5.5 0 0 0-.5.5v4.5a.5.5 0 0 0 .5.5H6a.5.5 0 0 0 .5-.5V10a.5.5 0 0 0-.5-.5H1.5zm8.5-1h4.5A1.5 1.5 0 0 1 16 10v4.5a1.5 1.5 0 0 1-1.5 1.5H10a1.5 1.5 0 0 1-1.5-1.5V10A1.5 1.5 0 0 1 10 8.5zm0 1a.5.5 0 0 0-.5.5v4.5a.5.5 0 0 0 .5.5h4.5a.5.5 0 0 0 .5-.5V10a.5.5 0 0 0-.5-.5H10zM5.75 0h4.5a1.5 1.5 0 0 1 1.5 1.5V6a1.5 1.5 0 0 1-1.5 1.5h-4.5A1.5 1.5 0 0 1 4.25 6V1.5A1.5 1.5 0 0 1 5.75 0zm0 1a.5.5 0 0 0-.5.5V6a.5.5 0 0 0 .5.5h4.5a.5.5 0 0 0 .5-.5V1.5a.5.5 0 0 0-.5-.5h-4.5z"/>
    </defs>
    <g fill="none" fill-rule="evenodd">
        <mask id="b" fill="#fff">
            <use xlink:href="#a"/>
        </mask>
        <use fill="#000" fill-rule="nonzero" xlink:href="#a"/>
        <g fill="#3A393A" mask="url(#b)">
            <path d="M0 0h16v16H0z"/>
        </g>
    </g>
</svg>
