<svg xmlns="http://www.w3.org/2000/svg" xmlns:xlink="http://www.w3.org/1999/xlink" width="24" height="24" viewBox="0 0 24 24">
    <defs>
        <path id="a" d="M9.693 2.175c.37 0 .727.142 1.073.37a3.3 3.3 0 0 1 .259.19c2.059-.13 3.55.596 4.485 2a.5.5 0 1 1-.832.555c-.762-1.145-1.97-1.705-3.78-1.542l-.232.02-.166-.163a2.01 2.01 0 0 0-.286-.225c-.197-.13-.383-.205-.52-.205-2.63 0-4.381.893-5.465 2.38a5.703 5.703 0 0 0-.824 1.633c-.105.33-.155.581-.166.656v3.372h-.5c-.612 0-.951.15-1.123.376a.532.532 0 0 0-.116.273c0 .119.005.333.02.61.027.461.073.922.145 1.349.089.529.21.963.36 1.261.12.235.258.357.42.41.159.053.35.04.537-.016a.9.9 0 0 0 .114-.042l.584-.289.128.638.575 2.852a7.132 7.132 0 0 0 1.077 2.195C6.458 22.194 7.836 23 9.693 23c2.169 0 3.648-.861 4.53-2.313a.5.5 0 1 1 .855.519C14.018 22.952 12.217 24 9.693 24c-2.2 0-3.864-.973-5.04-2.576a8.121 8.121 0 0 1-.965-1.738 6.12 6.12 0 0 1-.28-.83l-.474-2.345a1.755 1.755 0 0 1-.803-.066c-.417-.138-.762-.442-.998-.91-.204-.403-.35-.926-.454-1.545a13.417 13.417 0 0 1-.157-1.46C.506 12.235.5 12.002.5 11.866c0-.243.08-.561.319-.876.3-.396.772-.656 1.42-.742V8.168c0-.155.001-.226.003-.38.021-.192.084-.506.21-.903a6.695 6.695 0 0 1 .97-1.92c1.27-1.744 3.322-2.79 6.271-2.79zm1.13-2.088c.92.1 1.828.304 2.682.635 2.568.996 4.231 2.962 4.495 6.121l.001.466.001.558V9.04l-.001.401-.001.609c.709.15 1.17.63 1.376 1.305.139.454.183.981.049 1.317l.013.004c-.366 1.043-.458 1.296-.59 1.614-.027.067-.055.131-.083.196-.111.25-.2.431-.512 1.05-.236.467-.58.771-.998.909a1.76 1.76 0 0 1-.818.064 5.114 5.114 0 0 1-.69 1.412c-.74 1.069-1.832 1.762-3.303 1.928-.195.51-.69.874-1.273.874H10A1.362 1.362 0 0 1 10 18h1.17c.571 0 1.06.347 1.263.844 1.125-.15 1.932-.683 2.492-1.492a4.162 4.162 0 0 0 .648-1.538l.099-.683.618.306a.9.9 0 0 0 .114.042c.188.057.379.069.538.016.162-.053.3-.175.418-.41.304-.601.389-.774.49-1.003l.074-.174c.113-.273.199-.505.496-1.352l.06-.173h.005l.002-.019a1.895 1.895 0 0 0-.068-.717c-.13-.425-.392-.647-.919-.647H17V9.493l.002-.335V7.981v-.543c-.002-.469-.002-.469 0-.552-.228-2.712-1.628-4.367-3.859-5.232a9.642 9.642 0 0 0-2.428-.573 10.078 10.078 0 0 0-1.468-.06c-.05.001-.085.003-.133.006-.05 0-.155.003-.304.013-.255.017-.54.049-.847.097a9.438 9.438 0 0 0-2.567.775C3.106 2.999 1.75 4.93 1.75 7.993V9.5a.5.5 0 0 1-1 0V7.993c0-3.47 1.593-5.739 4.217-6.985.908-.43 1.874-.706 2.84-.858a10.6 10.6 0 0 1 .935-.108c.173-.011.3-.015.335-.014l.13-.007c.44-.017.992-.003 1.617.066zM11.172 19H10a.362.362 0 1 0 0 .723h1.17a.362.362 0 1 0 0-.723zm-1.817-5.354c.471.472.821.472 1.292 0a.5.5 0 0 1 .708.708c-.862.861-1.846.861-2.708 0a.5.5 0 0 1 .708-.708zM8 10a.5.5 0 1 1 0 1H5.5a.5.5 0 1 1 0-1H8zm6.5 0a.5.5 0 1 1 0 1H12a.5.5 0 1 1 0-1h2.5z"/>
    </defs>
    <g fill="none" fill-rule="evenodd" transform="translate(2)">
        <mask id="b" fill="#fff">
            <use xlink:href="#a"/>
        </mask>
        <use fill="#0073D0" xlink:href="#a"/>
        <g fill="#FFF" mask="url(#b)">
            <path d="M-2 0h25v25H-2z"/>
        </g>
    </g>
</svg>
