<svg xmlns="http://www.w3.org/2000/svg" xmlns:xlink="http://www.w3.org/1999/xlink" width="16" height="16" viewBox="0 0 16 16">
    <defs>
        <path id="prefix__a" d="M7 5.453c.823 0 1.49.66 1.49 1.473 0 .664-.443 1.225-1.053 1.41l.001 3.045c1.268.21 2.234 1.303 2.234 2.619H4.31c0-1.316.966-2.408 2.233-2.62V8.33c-.599-.191-1.032-.747-1.032-1.404 0-.814.666-1.473 1.489-1.473zM7 0c3.866 0 7 3.101 7 6.926 0 2.379-1.212 4.478-3.058 5.725-.1-.286-.23-.558-.388-.811 1.545-1.095 2.552-2.888 2.552-4.914C13.106 3.59 10.372.884 7 .884S.894 3.59.894 6.926c0 2.026 1.007 3.819 2.553 4.915l-.048.076c-.131.223-.243.458-.33.705l-.011.029C1.212 11.404 0 9.305 0 6.926 0 3.101 3.134 0 7 0zm0 2.063c2.714 0 4.915 2.177 4.915 4.863 0 1.662-.842 3.13-2.128 4.006-.238-.214-.503-.4-.788-.554 1.208-.685 2.022-1.974 2.022-3.452 0-2.197-1.8-3.979-4.021-3.979-2.22 0-4.021 1.782-4.021 3.98 0 1.477.814 2.766 2.022 3.453-.285.152-.55.338-.79.552-1.284-.877-2.126-2.344-2.126-4.006 0-2.686 2.2-4.863 4.915-4.863z"/>
    </defs>
    <g fill="none" fill-rule="evenodd" transform="translate(1 1)">
        <mask id="prefix__b" fill="#fff">
            <use xlink:href="#prefix__a"/>
        </mask>
        <use fill="#FFF" xlink:href="#prefix__a"/>
        <g fill="#404141" mask="url(#prefix__b)">
            <path d="M0 0H14V14H0z"/>
        </g>
    </g>
</svg>
