<svg xmlns="http://www.w3.org/2000/svg" xmlns:xlink="http://www.w3.org/1999/xlink" width="16" height="16" viewBox="0 0 16 16">
    <path d="M4.648 9.75a6.151 6.151 0 0 0-2.598 5.048h11.916a6.151 6.151 0 0 0-2.598-5.048 6.47 6.47 0 0 1-3.36.935 6.47 6.47 0 0 1-3.36-.935zm.647-1.12a5.219 5.219 0 0 0 2.713.755c.972 0 1.901-.263 2.713-.754a1.25 1.25 0 0 1 1.366.046 7.4 7.4 0 0 1 3.129 6.071c0 .69-.56 1.25-1.25 1.25H2.05c-.69 0-1.25-.56-1.25-1.25a7.4 7.4 0 0 1 3.13-6.071 1.25 1.25 0 0 1 1.365-.046zM8.05 8a4 4 0 1 1 0-8 4 4 0 0 1 0 8zm0-1.25a2.75 2.75 0 1 0 0-5.5 2.75 2.75 0 0 0 0 5.5z"/>
</svg>
