<svg xmlns="http://www.w3.org/2000/svg" xmlns:xlink="http://www.w3.org/1999/xlink" width="24" height="24" viewBox="0 0 24 24">
    <defs>
        <path id="a" d="M8.5.4c2.553 0 4.625 2.042 4.625 4.565 0 1.672-.91 3.133-2.267 3.928 3.482 1.093 6.017 4.552 6.017 8.637a.5.5 0 0 1-.5.5H.625a.5.5 0 0 1-.5-.5c0-4.085 2.535-7.544 6.017-8.638a4.546 4.546 0 0 1-2.267-3.927C3.875 2.442 5.947.4 8.5.4zm0 9.13c-3.91 0-7.123 3.308-7.36 7.5h14.72c-.237-4.192-3.45-7.5-7.36-7.5zm9.125-6.813c1.933 0 3.5 1.57 3.5 3.505a3.502 3.502 0 0 1-1.487 2.868c2.456.91 4.214 3.447 4.214 6.42a.5.5 0 0 1-.5.5H18a.5.5 0 1 1 0-1h4.833c-.23-2.968-2.483-5.283-5.208-5.283-.814 0-1.6.205-2.314.596a.5.5 0 0 1-.48-.877c.253-.139.515-.258.782-.357a3.496 3.496 0 0 1-1.488-2.867 3.502 3.502 0 0 1 3.5-3.505zm0 1c-1.38 0-2.5 1.122-2.5 2.505a2.502 2.502 0 0 0 2.5 2.505c1.38 0 2.5-1.121 2.5-2.505a2.502 2.502 0 0 0-2.5-2.505zM8.5 1.4c-2.004 0-3.625 1.598-3.625 3.565 0 1.968 1.621 3.565 3.625 3.565s3.625-1.597 3.625-3.565c0-1.967-1.621-3.565-3.625-3.565z"/>
    </defs>
    <g fill="none" fill-rule="evenodd" transform="translate(0 3)">
        <mask id="b" fill="#fff">
            <use xlink:href="#a"/>
        </mask>
        <use fill="#979797" fill-rule="nonzero" xlink:href="#a"/>
        <g fill="#ffffff" mask="url(#b)">
            <path d="M-11-11.347h47.765v34.765H-11z"/>
        </g>
    </g>
</svg>
